HIERARCHY
ROOT Hips
{
  OFFSET 54.5375 93.8192 7.36413
  CHANNELS 6 Xposition Yposition Zposition Zrotation Xrotation Yrotation
  JOINT spine
  {
    OFFSET 0 7.4756 0.429885
    CHANNELS 3 Zrotation Xrotation Yrotation
    JOINT spine1
    {
      OFFSET 0 9.92301 0
      CHANNELS 3 Zrotation Xrotation Yrotation
      JOINT spine2
      {
        OFFSET 0 9.50804 0
        CHANNELS 3 Zrotation Xrotation Yrotation
        JOINT Neck
        {
          OFFSET 0 24.4111 1.16384
          CHANNELS 3 Zrotation Xrotation Yrotation
          JOINT Head
          {
            OFFSET 0 7.37523 0
            CHANNELS 3 Zrotation Xrotation Yrotation
            End Site
            {
              OFFSET 0 17.8522 -5.88741
            }
          }
        }
        JOINT RightShoulder
        {
          OFFSET -4.00356 10.2679 -0.557468
          CHANNELS 3 Zrotation Xrotation Yrotation
          JOINT RightArm
          {
            OFFSET 0 13.4673 0
            CHANNELS 3 Zrotation Xrotation Yrotation
            JOINT RightArmRoll
            {
              OFFSET 0 6.79858 0
              CHANNELS 3 Zrotation Xrotation Yrotation
              JOINT RightForeArm
              {
                OFFSET 0 19.8018 0
                CHANNELS 3 Zrotation Xrotation Yrotation
                JOINT RightForeArmRoll
                {
                  OFFSET 0 7.62905 0
                  CHANNELS 3 Zrotation Xrotation Yrotation
                  JOINT RightHand
                  {
                    OFFSET 0 15.3098 0
                    CHANNELS 3 Zrotation Xrotation Yrotation
                    End Site
                    {
                      OFFSET 0 0 0
                    }
                  }
                }
              }
            }
          }
        }
        JOINT LeftShoulder
        {
          OFFSET 4.00356 10.2679 -0.557468
          CHANNELS 3 Zrotation Xrotation Yrotation
          JOINT LeftArm
          {
            OFFSET 0 13.4673 0
            CHANNELS 3 Zrotation Xrotation Yrotation
            JOINT LeftArmRoll
            {
              OFFSET 0 6.79858 0
              CHANNELS 3 Zrotation Xrotation Yrotation
              JOINT LeftForeArm
              {
                OFFSET 0 19.8018 0
                CHANNELS 3 Zrotation Xrotation Yrotation
                JOINT LeftForeArmRoll
                {
                  OFFSET 0 7.62905 0
                  CHANNELS 3 Zrotation Xrotation Yrotation
                  JOINT LeftHand
                  {
                    OFFSET 0 15.3098 0
                    CHANNELS 3 Zrotation Xrotation Yrotation
                    End Site
                    {
                      OFFSET 0 0 0
                    }
                  }
                }
              }
            }
          }
        }
      }
    }
  }
  JOINT RightUpLeg
  {
    OFFSET -6.62609 -1.21505 -1.01927
    CHANNELS 3 Zrotation Xrotation Yrotation
    JOINT RightUpLegRoll
    {
      OFFSET 0 17.9517 0
      CHANNELS 3 Zrotation Xrotation Yrotation
      JOINT RightLeg
      {
        OFFSET 0 -22.2304 0
        CHANNELS 3 Zrotation Xrotation Yrotation
        JOINT RightLegRoll
        {
          OFFSET 0 22.3032 0
          CHANNELS 3 Zrotation Xrotation Yrotation
          JOINT RightFoot
          {
            OFFSET 0 18.5636 0
            CHANNELS 3 Zrotation Xrotation Yrotation
            JOINT RightToeBase
            {
              OFFSET 0 15.5183 0
              CHANNELS 3 Zrotation Xrotation Yrotation
              End Site
              {
                OFFSET 0.00657761 7.51539 -0.866263
              }
            }
          }
        }
      }
    }
  }
  JOINT LeftUpLeg
  {
    OFFSET 6.62609 -1.21505 -1.01927
    CHANNELS 3 Zrotation Xrotation Yrotation
    JOINT LeftUpLegRoll
    {
      OFFSET 0 17.9518 0
      CHANNELS 3 Zrotation Xrotation Yrotation
      JOINT LeftLeg
      {
        OFFSET 0 22.2303 0
        CHANNELS 3 Zrotation Xrotation Yrotation
        JOINT LeftLegRoll
        {
          OFFSET 0 22.5093 0
          CHANNELS 3 Zrotation Xrotation Yrotation
          JOINT LeftFoot
          {
            OFFSET 0 18.3575 0
            CHANNELS 3 Zrotation Xrotation Yrotation
            JOINT LeftToeBase
            {
              OFFSET 0 15.5183 0
              CHANNELS 3 Zrotation Xrotation Yrotation
              End Site
              {
                OFFSET -0.029478 7.51538 -0.866263
              }
            }
          }
        }
      }
    }
  }
}
MOTION
Frames: 8
Frame Time: 0.00208333
55.1275 93.7552 8.07307 -1.19729 -3.40133 -2.44405 0.231375 -1.05701 0.135564 0.443951 1.88814 0.254387 0.441445 3.53318 0.246991 -8.50048 4.60571 -2.58948 12.4268 2.26613 -3.28302 70.0249 -0.455976 -1.55856 99.1257 12.7326 10.6314 6.33121e-007 -1.02154e-006 -3.52406e-006 12.5438 0.354055 -0.434079 1.17614e-006 -8.07877e-008 -3 8.02887 -4.95145 0.697683 -77.3855 -1.34754 2.68984 -93.5436 8.36521 -21.5492 6.2795e-006 -5.46671e-007 6.07277e-006 -5.38706 3.68071 0.998043 -4.84934e-006 -3.26205e-006 3.00735 -8.0295 -4.95144 -0.697661 179.047 -1.12632 -0.483543 180 7.01543e-015 178.906 178.232 7.32211 179.733 -7.64135e-007 -7.34121e-006 0.131216 -19.5933 69.1389 20.5259 8.13649 25.2327 -3.48774 -177.184 -2.87182 1.77024 4.54188e-006 -4.6773e-006 -1.07734 -2.55326 -4.65675 0.0170599 -1.3803e-006 -6.85871e-006 -0.0460933 18.4729 67.8102 -19.3792 -8.13649 25.2327 3.48774 
55.1291 93.7608 8.06428 -1.19716 -3.40295 -2.45702 0.232634 -1.05577 0.13656 0.447925 1.88946 0.255618 0.445397 3.5345 0.248164 -8.54229 4.61054 -2.57539 12.4374 2.2656 -3.27648 70.0225 -0.437788 -1.54945 99.1157 12.8347 10.5044 6.33121e-007 -1.02154e-006 -3.52406e-006 12.6029 0.451744 -0.441584 1.17614e-006 -8.07877e-008 -3 8.02887 -4.95145 0.697683 -77.3937 -1.3537 2.69312 -93.5345 8.36497 -21.5024 6.2795e-006 -5.46671e-007 6.07277e-006 -5.42176 3.92397 1.01663 -4.84934e-006 -3.26205e-006 3.00735 -8.0295 -4.95144 -0.697661 179.048 -1.12639 -0.485336 180 7.01543e-015 178.906 178.234 7.31637 179.732 -7.64135e-007 -7.34121e-006 0.131216 -19.591 69.1365 20.5235 8.13649 25.2327 -3.48774 -177.186 -2.87258 1.77214 4.54188e-006 -4.6773e-006 -1.07735 -2.55189 -4.65588 0.0171893 -1.3803e-006 -6.85871e-006 -0.0460933 18.4732 67.8106 -19.3795 -8.13649 25.2327 3.48774 
55.1335 93.7599 8.08074 -1.19715 -3.40468 -2.47038 0.233925 -1.05446 0.137587 0.452013 1.89083 0.256887 0.449461 3.53587 0.249374 -8.58559 4.61545 -2.56109 12.4491 2.26505 -3.26994 70.0212 -0.419043 -1.54017 99.1058 12.9395 10.3764 6.33121e-007 -1.02154e-006 -3.52406e-006 12.6636 0.54184 -0.44785 1.17614e-006 -8.07877e-008 -3 8.02887 -4.95145 0.697683 -77.4024 -1.35963 2.69635 -93.5246 8.36327 -21.4571 6.2795e-006 -5.46671e-007 6.07277e-006 -5.45663 4.16037 1.03457 -4.84934e-006 -3.26205e-006 3.00735 -8.0295 -4.95144 -0.697661 179.048 -1.1267 -0.487198 180 7.01543e-015 178.906 178.237 7.31047 179.732 -7.64135e-007 -7.34121e-006 0.131216 -19.5886 69.1339 20.5209 8.13649 25.2327 -3.48774 -177.187 -2.87351 1.77402 4.54188e-006 -4.6773e-006 -1.07735 -2.55045 -4.65504 0.0173118 -1.3803e-006 -6.85871e-006 -0.0460933 18.4735 67.811 -19.3798 -8.13649 25.2327 3.48774 
55.1327 93.7629 8.06994 -1.19722 -3.40648 -2.48401 0.235238 -1.05311 0.138636 0.45618 1.89225 0.258183 0.453605 3.53729 0.25061 -8.62995 4.62042 -2.54663 12.4614 2.26449 -3.26339 70.0206 -0.399908 -1.53078 99.0961 13.0464 10.2476 6.33121e-007 -1.02154e-006 -3.52406e-006 12.7253 0.626621 -0.453249 1.17614e-006 -8.07877e-008 -3 8.02887 -4.95145 0.697683 -77.4116 -1.36538 2.69956 -93.5141 8.36054 -21.4129 6.2795e-006 -5.46671e-007 6.07277e-006 -5.49165 4.39198 1.05207 -4.84934e-006 -3.26205e-006 3.00735 -8.0295 -4.95144 -0.697661 179.048 -1.12719 -0.489108 180 7.01543e-015 178.906 178.239 7.30446 179.731 -7.64135e-007 -7.34121e-006 0.131216 -19.586 69.1312 20.5182 8.13649 25.2327 -3.48774 -177.189 -2.87455 1.77587 4.54188e-006 -4.6773e-006 -1.07736 -2.54898 -4.65423 0.0174295 -1.3803e-006 -6.85871e-006 -0.0460933 18.4738 67.8114 -19.3802 -8.13649 25.2327 3.48774 
55.1415 93.7625 8.06484 -1.19734 -3.40832 -2.4978 0.236564 -1.05174 0.139698 0.460394 1.89369 0.259495 0.457795 3.53873 0.251861 -8.67492 4.62542 -2.53208 12.4742 2.26392 -3.25684 70.0203 -0.38055 -1.52133 99.0868 13.1543 10.1184 6.33121e-007 -1.02154e-006 -3.52406e-006 12.7878 0.708366 -0.458152 1.17614e-006 -8.07877e-008 -3 8.02887 -4.95145 0.697683 -77.421 -1.37104 2.70275 -93.5033 8.35722 -21.3692 6.2795e-006 -5.46671e-007 6.07277e-006 -5.5268 4.62084 1.06933 -4.84934e-006 -3.26205e-006 3.00735 -8.0295 -4.95144 -0.697661 179.049 -1.12777 -0.491046 180 7.01543e-015 178.906 178.242 7.2984 179.731 -7.64135e-007 -7.34121e-006 0.131216 -19.5834 69.1284 20.5154 8.13649 25.2327 -3.48774 -177.19 -2.87567 1.77771 4.54188e-006 -4.6773e-006 -1.07737 -2.54748 -4.65344 0.0175445 -1.3803e-006 -6.85871e-006 -0.0460933 18.4741 67.8117 -19.3805 -8.13649 25.2327 3.48774 
55.1403 93.7648 8.06218 -1.19748 -3.41017 -2.51162 0.237892 -1.05036 0.140763 0.464619 1.89514 0.26081 0.461996 3.54018 0.253115 -8.72003 4.63042 -2.51751 12.487 2.26335 -3.25029 70.0202 -0.361136 -1.51186 99.078 13.2625 9.98897 6.33121e-007 -1.02154e-006 -3.52406e-006 12.8504 0.789351 -0.462932 1.17614e-006 -8.07877e-008 -3 8.02887 -4.95145 0.697683 -77.4305 -1.37668 2.70593 -93.4925 8.35374 -21.3256 6.2795e-006 -5.46671e-007 6.07277e-006 -5.5621 4.84901 1.08654 -4.84934e-006 -3.26205e-006 3.00735 -8.0295 -4.95144 -0.697661 179.049 -1.12838 -0.49299 180 7.01543e-015 178.906 178.244 7.29231 179.73 -7.64135e-007 -7.34121e-006 0.131216 -19.5808 69.1255 20.5125 8.13649 25.2327 -3.48774 -177.191 -2.8768 1.77954 4.54188e-006 -4.6773e-006 -1.07737 -2.54598 -4.65265 0.0176588 -1.3803e-006 -6.85871e-006 -0.0460933 18.4744 67.8121 -19.3808 -8.13649 25.2327 3.48774 
55.1327 93.7642 8.0527 -1.19759 -3.412 -2.52537 0.239214 -1.04899 0.141822 0.468821 1.89658 0.262118 0.466173 3.54161 0.254362 -8.76485 4.63541 -2.50298 12.4997 2.26279 -3.24374 70.0198 -0.341833 -1.50242 99.0696 13.3702 9.85968 6.33121e-007 -1.02154e-006 -3.52406e-006 12.9126 0.871855 -0.467962 1.17614e-006 -8.07877e-008 -3 8.02887 -4.95145 0.697683 -77.4399 -1.38237 2.70913 -93.4817 8.35055 -21.2817 6.2795e-006 -5.46671e-007 6.07277e-006 -5.59753 5.07855 1.10392 -4.84934e-006 -3.26205e-006 3.00735 -8.0295 -4.95144 -0.697661 179.05 -1.12894 -0.494921 180 7.01543e-015 178.906 178.247 7.28625 179.73 -7.64135e-007 -7.34121e-006 0.131216 -19.5781 69.1227 20.5097 8.13649 25.2327 -3.48774 -177.193 -2.87789 1.78138 4.54188e-006 -4.6773e-006 -1.07738 -2.54448 -4.65186 0.0177745 -1.3803e-006 -6.85871e-006 -0.0460933 18.4746 67.8124 -19.3811 -8.13649 25.2327 3.48774 
55.134 93.7658 8.05005 -1.19764 -3.41378 -2.53892 0.240521 -1.04765 0.142865 0.472965 1.89798 0.263406 0.470295 3.54302 0.25559 -8.80892 4.64036 -2.48856 12.5119 2.26223 -3.2372 70.0189 -0.322808 -1.49307 99.062 13.4766 9.73079 6.33121e-007 -1.02154e-006 -3.52406e-006 12.9742 0.958154 -0.473613 1.17614e-006 -8.07877e-008 -3 8.02887 -4.95145 0.697683 -77.4489 -1.38817 2.71234 -93.4714 8.34808 -21.2372 6.2795e-006 -5.46671e-007 6.07277e-006 -5.63312 5.31151 1.12168 -4.84934e-006 -3.26205e-006 3.00735 -8.0295 -4.95144 -0.697661 179.05 -1.12938 -0.496817 180 7.01543e-015 178.906 178.249 7.28028 179.729 -7.64135e-007 -7.34121e-006 0.131216 -19.5756 69.12 20.507 8.13649 25.2327 -3.48774 -177.194 -2.87891 1.78324 4.54188e-006 -4.6773e-006 -1.07739 -2.54302 -4.65104 0.0178936 -1.3803e-006 -6.85871e-006 -0.0460933 18.4749 67.8128 -19.3814 -8.13649 25.2327 3.48774 
